<mxfile host="Electron" agent="Mozilla/5.0 (Macintosh; Intel Mac OS X 10_15_7) AppleWebKit/537.36 (KHTML, like Gecko) draw.io/26.2.2 Chrome/134.0.6998.178 Electron/35.1.2 Safari/537.36" version="26.2.2">
  <diagram name="Page-1" id="qqqGbTNC3fa94FWlUtda">
    <mxGraphModel dx="1030" dy="764" grid="1" gridSize="10" guides="1" tooltips="1" connect="1" arrows="1" fold="1" page="1" pageScale="1" pageWidth="1169" pageHeight="827" math="0" shadow="0">
      <root>
        <mxCell id="0" />
        <mxCell id="1" parent="0" />
        <mxCell id="oteSzGPQdlDYIQ9Bffow-56" value="" style="group" vertex="1" connectable="0" parent="1">
          <mxGeometry x="130" y="220" width="600" height="200" as="geometry" />
        </mxCell>
        <mxCell id="oteSzGPQdlDYIQ9Bffow-5" value="" style="group;fillColor=#60a917;strokeColor=#2D7600;fontColor=#ffffff;" vertex="1" connectable="0" parent="oteSzGPQdlDYIQ9Bffow-56">
          <mxGeometry x="40.54054054054054" width="64.86486486486486" height="69.56521739130434" as="geometry" />
        </mxCell>
        <mxCell id="oteSzGPQdlDYIQ9Bffow-42" style="edgeStyle=orthogonalEdgeStyle;rounded=0;orthogonalLoop=1;jettySize=auto;html=1;exitX=0;exitY=1;exitDx=0;exitDy=0;strokeColor=default;endArrow=none;startFill=0;" edge="1" parent="oteSzGPQdlDYIQ9Bffow-5" source="oteSzGPQdlDYIQ9Bffow-1">
          <mxGeometry relative="1" as="geometry">
            <mxPoint y="78.26086956521738" as="targetPoint" />
          </mxGeometry>
        </mxCell>
        <mxCell id="oteSzGPQdlDYIQ9Bffow-1" value="" style="rounded=0;whiteSpace=wrap;html=1;fillColor=#60a917;strokeColor=#2D7600;fontColor=#ffffff;" vertex="1" parent="oteSzGPQdlDYIQ9Bffow-5">
          <mxGeometry width="16.216216216216214" height="69.56521739130434" as="geometry" />
        </mxCell>
        <mxCell id="oteSzGPQdlDYIQ9Bffow-2" value="" style="rounded=0;whiteSpace=wrap;html=1;fillColor=#60a917;strokeColor=#2D7600;fontColor=#ffffff;" vertex="1" parent="oteSzGPQdlDYIQ9Bffow-5">
          <mxGeometry x="16.216216216216214" width="16.216216216216214" height="69.56521739130434" as="geometry" />
        </mxCell>
        <mxCell id="oteSzGPQdlDYIQ9Bffow-3" value="" style="rounded=0;whiteSpace=wrap;html=1;fillColor=#60a917;strokeColor=#2D7600;fontColor=#ffffff;" vertex="1" parent="oteSzGPQdlDYIQ9Bffow-5">
          <mxGeometry x="32.43243243243243" width="16.216216216216214" height="69.56521739130434" as="geometry" />
        </mxCell>
        <mxCell id="oteSzGPQdlDYIQ9Bffow-4" value="" style="rounded=0;whiteSpace=wrap;html=1;fillColor=#60a917;strokeColor=#2D7600;fontColor=#ffffff;" vertex="1" parent="oteSzGPQdlDYIQ9Bffow-5">
          <mxGeometry x="48.648648648648646" width="16.216216216216214" height="69.56521739130434" as="geometry" />
        </mxCell>
        <mxCell id="oteSzGPQdlDYIQ9Bffow-6" value="" style="group;fillColor=#60a917;strokeColor=#2D7600;fontColor=#ffffff;" vertex="1" connectable="0" parent="oteSzGPQdlDYIQ9Bffow-56">
          <mxGeometry x="105.4054054054054" width="64.86486486486486" height="69.56521739130434" as="geometry" />
        </mxCell>
        <mxCell id="oteSzGPQdlDYIQ9Bffow-7" value="" style="rounded=0;whiteSpace=wrap;html=1;fillColor=#60a917;strokeColor=#2D7600;fontColor=#ffffff;" vertex="1" parent="oteSzGPQdlDYIQ9Bffow-6">
          <mxGeometry width="16.216216216216214" height="69.56521739130434" as="geometry" />
        </mxCell>
        <mxCell id="oteSzGPQdlDYIQ9Bffow-8" value="" style="rounded=0;whiteSpace=wrap;html=1;fillColor=#60a917;strokeColor=#2D7600;fontColor=#ffffff;" vertex="1" parent="oteSzGPQdlDYIQ9Bffow-6">
          <mxGeometry x="16.216216216216214" width="16.216216216216214" height="69.56521739130434" as="geometry" />
        </mxCell>
        <mxCell id="oteSzGPQdlDYIQ9Bffow-9" value="" style="rounded=0;whiteSpace=wrap;html=1;fillColor=#60a917;strokeColor=#2D7600;fontColor=#ffffff;" vertex="1" parent="oteSzGPQdlDYIQ9Bffow-6">
          <mxGeometry x="32.43243243243243" width="16.216216216216214" height="69.56521739130434" as="geometry" />
        </mxCell>
        <mxCell id="oteSzGPQdlDYIQ9Bffow-10" value="" style="rounded=0;whiteSpace=wrap;html=1;fillColor=#60a917;strokeColor=#2D7600;fontColor=#ffffff;" vertex="1" parent="oteSzGPQdlDYIQ9Bffow-6">
          <mxGeometry x="48.648648648648646" width="16.216216216216214" height="69.56521739130434" as="geometry" />
        </mxCell>
        <mxCell id="oteSzGPQdlDYIQ9Bffow-11" value="" style="group;fillColor=#60a917;strokeColor=#2D7600;fontColor=#ffffff;" vertex="1" connectable="0" parent="oteSzGPQdlDYIQ9Bffow-56">
          <mxGeometry x="170.27027027027026" width="64.86486486486486" height="69.56521739130434" as="geometry" />
        </mxCell>
        <mxCell id="oteSzGPQdlDYIQ9Bffow-12" value="" style="rounded=0;whiteSpace=wrap;html=1;fillColor=#60a917;strokeColor=#2D7600;fontColor=#ffffff;" vertex="1" parent="oteSzGPQdlDYIQ9Bffow-11">
          <mxGeometry width="16.216216216216214" height="69.56521739130434" as="geometry" />
        </mxCell>
        <mxCell id="oteSzGPQdlDYIQ9Bffow-13" value="" style="rounded=0;whiteSpace=wrap;html=1;fillColor=#60a917;strokeColor=#2D7600;fontColor=#ffffff;" vertex="1" parent="oteSzGPQdlDYIQ9Bffow-11">
          <mxGeometry x="16.216216216216214" width="16.216216216216214" height="69.56521739130434" as="geometry" />
        </mxCell>
        <mxCell id="oteSzGPQdlDYIQ9Bffow-14" value="" style="rounded=0;whiteSpace=wrap;html=1;fillColor=#60a917;strokeColor=#2D7600;fontColor=#ffffff;" vertex="1" parent="oteSzGPQdlDYIQ9Bffow-11">
          <mxGeometry x="32.43243243243243" width="16.216216216216214" height="69.56521739130434" as="geometry" />
        </mxCell>
        <mxCell id="oteSzGPQdlDYIQ9Bffow-15" value="" style="rounded=0;whiteSpace=wrap;html=1;fillColor=#60a917;strokeColor=#2D7600;fontColor=#ffffff;" vertex="1" parent="oteSzGPQdlDYIQ9Bffow-11">
          <mxGeometry x="48.648648648648646" width="16.216216216216214" height="69.56521739130434" as="geometry" />
        </mxCell>
        <mxCell id="oteSzGPQdlDYIQ9Bffow-16" value="" style="group;fillColor=#60a917;strokeColor=#2D7600;fontColor=#ffffff;" vertex="1" connectable="0" parent="oteSzGPQdlDYIQ9Bffow-56">
          <mxGeometry x="235.1351351351351" width="64.86486486486486" height="69.56521739130434" as="geometry" />
        </mxCell>
        <mxCell id="oteSzGPQdlDYIQ9Bffow-17" value="" style="rounded=0;whiteSpace=wrap;html=1;fillColor=#60a917;strokeColor=#2D7600;fontColor=#ffffff;" vertex="1" parent="oteSzGPQdlDYIQ9Bffow-16">
          <mxGeometry width="16.216216216216214" height="69.56521739130434" as="geometry" />
        </mxCell>
        <mxCell id="oteSzGPQdlDYIQ9Bffow-18" value="" style="rounded=0;whiteSpace=wrap;html=1;fillColor=#60a917;strokeColor=#2D7600;fontColor=#ffffff;" vertex="1" parent="oteSzGPQdlDYIQ9Bffow-16">
          <mxGeometry x="16.216216216216214" width="16.216216216216214" height="69.56521739130434" as="geometry" />
        </mxCell>
        <mxCell id="oteSzGPQdlDYIQ9Bffow-19" value="" style="rounded=0;whiteSpace=wrap;html=1;fillColor=#60a917;strokeColor=#2D7600;fontColor=#ffffff;" vertex="1" parent="oteSzGPQdlDYIQ9Bffow-16">
          <mxGeometry x="32.43243243243243" width="16.216216216216214" height="69.56521739130434" as="geometry" />
        </mxCell>
        <mxCell id="oteSzGPQdlDYIQ9Bffow-20" value="" style="rounded=0;whiteSpace=wrap;html=1;fillColor=#60a917;strokeColor=#2D7600;fontColor=#ffffff;" vertex="1" parent="oteSzGPQdlDYIQ9Bffow-16">
          <mxGeometry x="48.648648648648646" width="16.216216216216214" height="69.56521739130434" as="geometry" />
        </mxCell>
        <mxCell id="oteSzGPQdlDYIQ9Bffow-21" value="" style="group;fillColor=#60a917;strokeColor=#2D7600;fontColor=#ffffff;" vertex="1" connectable="0" parent="oteSzGPQdlDYIQ9Bffow-56">
          <mxGeometry x="300" width="72.97297297297297" height="69.56521739130434" as="geometry" />
        </mxCell>
        <mxCell id="oteSzGPQdlDYIQ9Bffow-22" value="" style="rounded=0;whiteSpace=wrap;html=1;fillColor=#d0cee2;strokeColor=#56517e;" vertex="1" parent="oteSzGPQdlDYIQ9Bffow-21">
          <mxGeometry width="16.216216216216214" height="69.56521739130434" as="geometry" />
        </mxCell>
        <mxCell id="oteSzGPQdlDYIQ9Bffow-23" value="" style="rounded=0;whiteSpace=wrap;html=1;fillColor=#d0cee2;strokeColor=#56517e;" vertex="1" parent="oteSzGPQdlDYIQ9Bffow-21">
          <mxGeometry x="16.216216216216214" width="16.216216216216214" height="69.56521739130434" as="geometry" />
        </mxCell>
        <mxCell id="oteSzGPQdlDYIQ9Bffow-24" value="" style="rounded=0;whiteSpace=wrap;html=1;fillColor=#d0cee2;strokeColor=#56517e;" vertex="1" parent="oteSzGPQdlDYIQ9Bffow-21">
          <mxGeometry x="32.43243243243243" width="16.216216216216214" height="69.56521739130434" as="geometry" />
        </mxCell>
        <mxCell id="oteSzGPQdlDYIQ9Bffow-25" value="" style="rounded=0;whiteSpace=wrap;html=1;fillColor=#d0cee2;strokeColor=#56517e;" vertex="1" parent="oteSzGPQdlDYIQ9Bffow-21">
          <mxGeometry x="48.648648648648646" width="16.216216216216214" height="69.56521739130434" as="geometry" />
        </mxCell>
        <mxCell id="oteSzGPQdlDYIQ9Bffow-26" value="" style="group;fillColor=#60a917;strokeColor=#2D7600;fontColor=#ffffff;" vertex="1" connectable="0" parent="oteSzGPQdlDYIQ9Bffow-56">
          <mxGeometry x="364.8648648648648" width="64.86486486486486" height="69.56521739130434" as="geometry" />
        </mxCell>
        <mxCell id="oteSzGPQdlDYIQ9Bffow-27" value="" style="rounded=0;whiteSpace=wrap;html=1;fillColor=#60a917;strokeColor=#2D7600;fontColor=#ffffff;" vertex="1" parent="oteSzGPQdlDYIQ9Bffow-26">
          <mxGeometry width="16.216216216216214" height="69.56521739130434" as="geometry" />
        </mxCell>
        <mxCell id="oteSzGPQdlDYIQ9Bffow-28" value="" style="rounded=0;whiteSpace=wrap;html=1;fillColor=#60a917;strokeColor=#2D7600;fontColor=#ffffff;" vertex="1" parent="oteSzGPQdlDYIQ9Bffow-26">
          <mxGeometry x="16.216216216216214" width="16.216216216216214" height="69.56521739130434" as="geometry" />
        </mxCell>
        <mxCell id="oteSzGPQdlDYIQ9Bffow-29" value="" style="rounded=0;whiteSpace=wrap;html=1;fillColor=#60a917;strokeColor=#2D7600;fontColor=#ffffff;" vertex="1" parent="oteSzGPQdlDYIQ9Bffow-26">
          <mxGeometry x="32.43243243243243" width="16.216216216216214" height="69.56521739130434" as="geometry" />
        </mxCell>
        <mxCell id="oteSzGPQdlDYIQ9Bffow-30" value="" style="rounded=0;whiteSpace=wrap;html=1;fillColor=#60a917;strokeColor=#2D7600;fontColor=#ffffff;" vertex="1" parent="oteSzGPQdlDYIQ9Bffow-26">
          <mxGeometry x="48.648648648648646" width="16.216216216216214" height="69.56521739130434" as="geometry" />
        </mxCell>
        <mxCell id="oteSzGPQdlDYIQ9Bffow-31" value="" style="group;fillColor=#60a917;strokeColor=#2D7600;fontColor=#ffffff;" vertex="1" connectable="0" parent="oteSzGPQdlDYIQ9Bffow-56">
          <mxGeometry x="429.7297297297297" width="64.86486486486486" height="69.56521739130434" as="geometry" />
        </mxCell>
        <mxCell id="oteSzGPQdlDYIQ9Bffow-32" value="" style="rounded=0;whiteSpace=wrap;html=1;fillColor=#60a917;strokeColor=#2D7600;fontColor=#ffffff;" vertex="1" parent="oteSzGPQdlDYIQ9Bffow-31">
          <mxGeometry width="16.216216216216214" height="69.56521739130434" as="geometry" />
        </mxCell>
        <mxCell id="oteSzGPQdlDYIQ9Bffow-33" value="" style="rounded=0;whiteSpace=wrap;html=1;fillColor=#60a917;strokeColor=#2D7600;fontColor=#ffffff;" vertex="1" parent="oteSzGPQdlDYIQ9Bffow-31">
          <mxGeometry x="16.216216216216214" width="16.216216216216214" height="69.56521739130434" as="geometry" />
        </mxCell>
        <mxCell id="oteSzGPQdlDYIQ9Bffow-34" value="" style="rounded=0;whiteSpace=wrap;html=1;fillColor=#60a917;strokeColor=#2D7600;fontColor=#ffffff;" vertex="1" parent="oteSzGPQdlDYIQ9Bffow-31">
          <mxGeometry x="32.43243243243243" width="16.216216216216214" height="69.56521739130434" as="geometry" />
        </mxCell>
        <mxCell id="oteSzGPQdlDYIQ9Bffow-35" value="" style="rounded=0;whiteSpace=wrap;html=1;fillColor=#60a917;strokeColor=#2D7600;fontColor=#ffffff;" vertex="1" parent="oteSzGPQdlDYIQ9Bffow-31">
          <mxGeometry x="48.648648648648646" width="16.216216216216214" height="69.56521739130434" as="geometry" />
        </mxCell>
        <mxCell id="oteSzGPQdlDYIQ9Bffow-36" value="" style="group;fillColor=#60a917;strokeColor=#2D7600;fontColor=#ffffff;" vertex="1" connectable="0" parent="oteSzGPQdlDYIQ9Bffow-56">
          <mxGeometry x="494.5945945945946" width="64.86486486486486" height="69.56521739130434" as="geometry" />
        </mxCell>
        <mxCell id="oteSzGPQdlDYIQ9Bffow-37" value="" style="rounded=0;whiteSpace=wrap;html=1;fillColor=#60a917;strokeColor=#2D7600;fontColor=#ffffff;" vertex="1" parent="oteSzGPQdlDYIQ9Bffow-36">
          <mxGeometry width="16.216216216216214" height="69.56521739130434" as="geometry" />
        </mxCell>
        <mxCell id="oteSzGPQdlDYIQ9Bffow-38" value="" style="rounded=0;whiteSpace=wrap;html=1;fillColor=#60a917;strokeColor=#2D7600;fontColor=#ffffff;" vertex="1" parent="oteSzGPQdlDYIQ9Bffow-36">
          <mxGeometry x="16.216216216216214" width="16.216216216216214" height="69.56521739130434" as="geometry" />
        </mxCell>
        <mxCell id="oteSzGPQdlDYIQ9Bffow-39" value="" style="rounded=0;whiteSpace=wrap;html=1;fillColor=#60a917;strokeColor=#2D7600;fontColor=#ffffff;" vertex="1" parent="oteSzGPQdlDYIQ9Bffow-36">
          <mxGeometry x="32.43243243243243" width="16.216216216216214" height="69.56521739130434" as="geometry" />
        </mxCell>
        <mxCell id="oteSzGPQdlDYIQ9Bffow-40" value="" style="rounded=0;whiteSpace=wrap;html=1;fillColor=#60a917;strokeColor=#2D7600;fontColor=#ffffff;" vertex="1" parent="oteSzGPQdlDYIQ9Bffow-36">
          <mxGeometry x="48.648648648648646" width="16.216216216216214" height="69.56521739130434" as="geometry" />
        </mxCell>
        <mxCell id="oteSzGPQdlDYIQ9Bffow-41" value="0x000000000000" style="text;html=1;align=center;verticalAlign=middle;whiteSpace=wrap;rounded=0;" vertex="1" parent="oteSzGPQdlDYIQ9Bffow-56">
          <mxGeometry y="78.26086956521738" width="81.08108108108108" height="26.08695652173913" as="geometry" />
        </mxCell>
        <mxCell id="oteSzGPQdlDYIQ9Bffow-44" value="0xFFFFFFFFFFFF" style="text;html=1;align=center;verticalAlign=middle;whiteSpace=wrap;rounded=0;" vertex="1" parent="oteSzGPQdlDYIQ9Bffow-56">
          <mxGeometry x="518.9189189189188" y="78.26086956521738" width="81.08108108108108" height="26.08695652173913" as="geometry" />
        </mxCell>
        <mxCell id="oteSzGPQdlDYIQ9Bffow-53" value="" style="group" vertex="1" connectable="0" parent="oteSzGPQdlDYIQ9Bffow-56">
          <mxGeometry x="312.16216216216213" y="139.1304347826087" width="48.648648648648646" height="60.869565217391305" as="geometry" />
        </mxCell>
        <mxCell id="oteSzGPQdlDYIQ9Bffow-48" value="" style="html=1;dashed=0;whiteSpace=wrap;shape=mxgraph.dfd.externalEntity;container=0;" vertex="1" parent="oteSzGPQdlDYIQ9Bffow-53">
          <mxGeometry width="48.648648648648646" height="60.869565217391305" as="geometry" />
        </mxCell>
        <mxCell id="oteSzGPQdlDYIQ9Bffow-52" value=".so" style="html=1;dashed=0;whiteSpace=wrap;shadow=1;" vertex="1" parent="oteSzGPQdlDYIQ9Bffow-53">
          <mxGeometry x="8.108108108108107" y="8.695652173913043" width="32.43243243243243" height="26.08695652173913" as="geometry" />
        </mxCell>
        <mxCell id="oteSzGPQdlDYIQ9Bffow-54" style="edgeStyle=orthogonalEdgeStyle;rounded=0;orthogonalLoop=1;jettySize=auto;html=1;exitX=0;exitY=0;exitDx=25;exitDy=0;exitPerimeter=0;entryX=0;entryY=1;entryDx=0;entryDy=0;" edge="1" parent="oteSzGPQdlDYIQ9Bffow-56" source="oteSzGPQdlDYIQ9Bffow-48" target="oteSzGPQdlDYIQ9Bffow-24">
          <mxGeometry relative="1" as="geometry" />
        </mxCell>
        <mxCell id="oteSzGPQdlDYIQ9Bffow-55" value="Linker loads the&lt;div&gt;file into process VMA&lt;/div&gt;" style="edgeLabel;html=1;align=center;verticalAlign=middle;resizable=0;points=[];" vertex="1" connectable="0" parent="oteSzGPQdlDYIQ9Bffow-54">
          <mxGeometry x="-0.1396" y="1" relative="1" as="geometry">
            <mxPoint as="offset" />
          </mxGeometry>
        </mxCell>
        <mxCell id="oteSzGPQdlDYIQ9Bffow-57" style="edgeStyle=orthogonalEdgeStyle;rounded=0;orthogonalLoop=1;jettySize=auto;html=1;exitX=0.75;exitY=1;exitDx=0;exitDy=0;entryX=0.5;entryY=0;entryDx=0;entryDy=0;endArrow=none;startFill=0;" edge="1" parent="oteSzGPQdlDYIQ9Bffow-56" source="oteSzGPQdlDYIQ9Bffow-40" target="oteSzGPQdlDYIQ9Bffow-44">
          <mxGeometry relative="1" as="geometry" />
        </mxCell>
        <mxCell id="oteSzGPQdlDYIQ9Bffow-59" value="File Backed Region" style="rounded=0;whiteSpace=wrap;html=1;fillColor=#d0cee2;strokeColor=#56517e;" vertex="1" parent="1">
          <mxGeometry x="400" y="190" width="120" height="20" as="geometry" />
        </mxCell>
        <mxCell id="oteSzGPQdlDYIQ9Bffow-60" value="Process VMA" style="rounded=0;whiteSpace=wrap;html=1;fillColor=light-dark(#61a916, #1f2f1e);strokeColor=light-dark(#2f7402, #446e2c);" vertex="1" parent="1">
          <mxGeometry x="170" y="190" width="120" height="20" as="geometry" />
        </mxCell>
        <mxCell id="oteSzGPQdlDYIQ9Bffow-61" value="&lt;h1 style=&quot;margin-top: 0px;&quot;&gt;Process VMA and File Backed Regions&lt;/h1&gt;" style="text;html=1;whiteSpace=wrap;overflow=hidden;rounded=0;" vertex="1" parent="1">
          <mxGeometry x="130" y="90" width="210" height="120" as="geometry" />
        </mxCell>
      </root>
    </mxGraphModel>
  </diagram>
</mxfile>
